<?xml version="1.0" encoding="utf-8"?>
<!-- Generator: Adobe Illustrator 23.0.0, SVG Export Plug-In . SVG Version: 6.00 Build 0)  -->
<svg version="1.1" xmlns="http://www.w3.org/2000/svg" xmlns:xlink="http://www.w3.org/1999/xlink" x="0px" y="0px"
	 viewBox="0 0 1000 1000" style="enable-background:new 0 0 1000 1000;" xml:space="preserve">
<style type="text/css">
	.st0{fill:#0059B3;}
	.st1{fill:#007FFF;stroke:#000000;stroke-miterlimit:10;}
	.st2{fill:#62BEFF;stroke:#000000;stroke-miterlimit:10;}
	.st3{fill:#4D4D4D;stroke:#000000;stroke-miterlimit:10;}
	.st4{fill:url(#SVGID_1_);stroke:#000000;stroke-miterlimit:10;}
	.st5{fill:url(#SVGID_2_);stroke:#000000;stroke-miterlimit:10;}
	.st6{fill:#B3B3B3;stroke:#000000;stroke-miterlimit:10;}
	.st7{fill:#FFFFFF;stroke:#000000;stroke-miterlimit:10;}
	.st8{fill:#E6E6E6;stroke:#000000;stroke-miterlimit:10;}
	.st9{display:none;}
	.st10{display:inline;}
	.st11{fill:none;stroke:#000000;stroke-miterlimit:10;}
	.st12{display:inline;fill:none;stroke:#000000;stroke-miterlimit:10;}
	.st13{display:inline;fill:#007FFF;stroke:#000000;stroke-miterlimit:10;}
</style>
<g id="Base">
	<g>
		<path class="st0" d="M500,999.5c-67.43,0-132.85-13.21-194.43-39.25c-59.48-25.16-112.9-61.17-158.77-107.05
			c-45.87-45.87-81.89-99.29-107.05-158.77C13.71,632.85,0.5,567.43,0.5,500s13.21-132.85,39.25-194.43
			c25.16-59.48,61.17-112.9,107.05-158.77c45.87-45.87,99.29-81.89,158.77-107.05C367.15,13.71,432.57,0.5,500,0.5
			s132.85,13.21,194.43,39.25c59.48,25.16,112.9,61.17,158.77,107.05c45.87,45.87,81.89,99.29,107.05,158.77
			c26.05,61.58,39.25,127,39.25,194.43s-13.21,132.85-39.25,194.43c-25.16,59.48-61.17,112.9-107.05,158.77
			c-45.87,45.87-99.29,81.89-158.77,107.05C632.85,986.29,567.43,999.5,500,999.5z"/>
		<path d="M500,1c67.36,0,132.71,13.19,194.23,39.21c59.42,25.13,112.79,61.11,158.61,106.94s81.81,99.19,106.94,158.61
			C985.81,367.29,999,432.64,999,500s-13.19,132.71-39.21,194.23c-25.13,59.42-61.11,112.79-106.94,158.61
			s-99.19,81.81-158.61,106.94C632.71,985.81,567.36,999,500,999s-132.71-13.19-194.23-39.21
			c-59.42-25.13-112.79-61.11-158.61-106.94S65.35,753.65,40.21,694.23C14.19,632.71,1,567.36,1,500s13.19-132.71,39.21-194.23
			c25.13-59.42,61.11-112.79,106.94-158.61s99.19-81.81,158.61-106.94C367.29,14.19,432.64,1,500,1 M500,0C223.86,0,0,223.86,0,500
			s223.86,500,500,500s500-223.86,500-500S776.14,0,500,0L500,0z"/>
	</g>
	<circle class="st1" cx="499" cy="499" r="469.5"/>
</g>
<g id="Highlight">
	<path class="st2" d="M924.5,300.5c-7.87,60.02-40.8,252.8-206,418c-42.8,42.8-186.36,175.63-418,206"/>
	<path class="st2" d="M74.5,699.5c7.73-59.86,40.35-253.35,206-419s359.14-198.27,419-206"/>
</g>
<g id="Halo">
	<path class="st3" d="M-0.5,999.5c9.55-90.68,54.14-408.14,323-677s586.32-313.45,677-323"/>
	<path class="st3" d="M-0.5,999.5c89.9-9.15,408.56-52.57,678-322s312.85-588.1,322-678"/>
	<linearGradient id="SVGID_1_" gradientUnits="userSpaceOnUse" x1="499.25" y1="499.75" x2="333.25" y2="333.75">
		<stop  offset="0" style="stop-color:#FFFFFF"/>
		<stop  offset="1" style="stop-color:#AAAAAA"/>
	</linearGradient>
	<path class="st4" d="M14.5,984.5c11.71-92.44,61.57-393.52,319-651c257.02-257.07,557.48-307.18,650-319"/>
	<linearGradient id="SVGID_2_" gradientUnits="userSpaceOnUse" x1="498.7406" y1="499.244" x2="665.7736" y2="664.0792">
		<stop  offset="0" style="stop-color:#FFFFFF"/>
		<stop  offset="1" style="stop-color:#AAAAAA"/>
	</linearGradient>
	<path class="st5" d="M14.5,984.5c92.05-11.58,393.53-61.16,651-319c257.27-257.64,306.51-558.9,318-651"/>
</g>
<g id="Stethoscope">
	<circle class="st3" cx="500" cy="500" r="250.5"/>
	<circle class="st6" cx="499.5" cy="499.5" r="235"/>
	<ellipse class="st7" cx="499.5" cy="500" rx="125" ry="125.5"/>
	<circle class="st8" cx="499.5" cy="499.5" r="94"/>
</g>
<g id="Base_grid" class="st9">
	<g class="st10">
		<line class="st11" x1="-0.5" y1="500.5" x2="499.5" y2="-0.5"/>
	</g>
	<line class="st12" x1="499.5" y1="-0.5" x2="999.5" y2="500.5"/>
	<line class="st12" x1="499.5" y1="1000.5" x2="999.5" y2="500.5"/>
	<line class="st12" x1="-0.5" y1="500.5" x2="499.5" y2="1000.5"/>
	<line class="st12" x1="-0.5" y1="-0.5" x2="999.5" y2="999.5"/>
	<line class="st12" x1="999.5" y1="-0.5" x2="-0.5" y2="999.5"/>
	<line class="st12" x1="499.5" y1="-0.5" x2="499.5" y2="1000.5"/>
	<line class="st12" x1="-0.5" y1="500.5" x2="999.5" y2="500.5"/>
	<line class="st12" x1="-0.5" y1="-0.5" x2="499.5" y2="-0.5"/>
	<line class="st12" x1="-0.5" y1="-0.5" x2="-0.5" y2="500.5"/>
	<line class="st12" x1="-0.5" y1="999.5" x2="-0.5" y2="500.5"/>
	<line class="st12" x1="-0.5" y1="999.5" x2="499.5" y2="1000.5"/>
	<line class="st12" x1="499.5" y1="1000.5" x2="999.5" y2="999.5"/>
	<line class="st12" x1="999.5" y1="500.5" x2="999.5" y2="999.5"/>
	<line class="st12" x1="999.5" y1="500.5" x2="999.5" y2="-0.5"/>
	<line class="st12" x1="499.5" y1="-0.5" x2="999.5" y2="-0.5"/>
	<line class="st12" x1="-0.5" y1="245.5" x2="249.5" y2="-0.5"/>
	<line class="st12" x1="749.5" y1="-0.5" x2="999.5" y2="249.5"/>
	<line class="st12" x1="999.5" y1="752.5" x2="749.5" y2="1000.5"/>
	<line class="st12" x1="-0.5" y1="750.5" x2="249.5" y2="999.5"/>
	<line class="st12" x1="-0.5" y1="124.5" x2="122.5" y2="-0.5"/>
	<line class="st12" x1="874.5" y1="-0.5" x2="999.5" y2="124.5"/>
	<line class="st12" x1="874.5" y1="999.5" x2="999.5" y2="873.5"/>
	<line class="st12" x1="-0.5" y1="874.5" x2="124.5" y2="999.5"/>
	<line class="st12" x1="60.5" y1="-0.5" x2="-0.5" y2="61.5"/>
	<line class="st12" x1="937.5" y1="-0.5" x2="999.5" y2="61.5"/>
	<line class="st12" x1="999.5" y1="936.5" x2="936.5" y2="999.5"/>
	<line class="st13" x1="-0.5" y1="936.5" x2="61.5" y2="999.5"/>
	<line class="st12" x1="30.5" y1="-0.5" x2="-0.5" y2="30.5"/>
	<line class="st12" x1="968.5" y1="-0.5" x2="999.5" y2="30.5"/>
	<line class="st12" x1="999.5" y1="968.5" x2="968.5" y2="999.5"/>
	<line class="st12" x1="-0.5" y1="968.5" x2="29.5" y2="1000.5"/>
</g>
<g id="Stethoscope_grid" class="st9">
	<line class="st12" x1="249.5" y1="499.5" x2="499.5" y2="249.5"/>
	<line class="st12" x1="499.5" y1="249.5" x2="750.5" y2="499.5"/>
	<line class="st12" x1="499.5" y1="750.5" x2="750.5" y2="499.5"/>
	<line class="st12" x1="249.5" y1="499.5" x2="499.5" y2="750.5"/>
	<line class="st12" x1="249.5" y1="249.5" x2="750.5" y2="249.5"/>
	<line class="st12" x1="249.5" y1="249.5" x2="249.5" y2="749.5"/>
	<line class="st12" x1="249.5" y1="749.5" x2="749.5" y2="750.5"/>
	<line class="st12" x1="749.5" y1="750.5" x2="750.5" y2="249.5"/>
	<line class="st12" x1="374.5" y1="249.5" x2="249.5" y2="374.5"/>
	<line class="st12" x1="249.5" y1="624.5" x2="374.5" y2="750.5"/>
	<line class="st12" x1="624.5" y1="750.5" x2="749.5" y2="624.5"/>
	<line class="st12" x1="624.5" y1="249.5" x2="749.5" y2="374.5"/>
	<line class="st12" x1="249.5" y1="311.5" x2="311.5" y2="249.5"/>
	<line class="st12" x1="249.5" y1="687.5" x2="311.5" y2="750.5"/>
	<line class="st12" x1="686.5" y1="749.5" x2="749.5" y2="687.5"/>
	<line class="st12" x1="686.5" y1="249.5" x2="750.5" y2="311.5"/>
	<line class="st12" x1="280.5" y1="249.5" x2="249.5" y2="280.5"/>
	<line class="st12" x1="718.5" y1="249.5" x2="750.5" y2="280.5"/>
	<line class="st12" x1="717.5" y1="750.5" x2="749.5" y2="718.5"/>
	<line class="st12" x1="280.5" y1="749.5" x2="249.5" y2="718.5"/>
	<g class="st10">
		<line class="st11" x1="374.5" y1="374.5" x2="624.5" y2="374.5"/>
	</g>
	<line class="st12" x1="374.5" y1="374.5" x2="374.5" y2="624.5"/>
	<line class="st12" x1="374.5" y1="624.5" x2="624.5" y2="624.5"/>
	<line class="st12" x1="624.5" y1="374.5" x2="624.5" y2="624.5"/>
	<line class="st12" x1="374.5" y1="499.5" x2="499.5" y2="374.5"/>
	<line class="st12" x1="499.5" y1="625.5" x2="374.5" y2="499.5"/>
	<line class="st12" x1="499.5" y1="625.5" x2="624.5" y2="499.5"/>
	<line class="st12" x1="499.5" y1="374.5" x2="624.5" y2="499.5"/>
	<line class="st12" x1="374.5" y1="436.5" x2="436.5" y2="374.5"/>
	<line class="st12" x1="561.5" y1="374.5" x2="624.5" y2="436.5"/>
	<line class="st12" x1="561.5" y1="624.5" x2="624.5" y2="562.5"/>
	<line class="st12" x1="374.5" y1="562.5" x2="436.5" y2="625.5"/>
	<line class="st12" x1="405.5" y1="374.5" x2="374.5" y2="405.5"/>
	<line class="st12" x1="592.5" y1="374.5" x2="624.5" y2="405.5"/>
	<line class="st12" x1="374.5" y1="593.5" x2="405.5" y2="624.5"/>
	<line class="st12" x1="592.5" y1="624.5" x2="624.5" y2="593.5"/>
	<line class="st12" x1="374.5" y1="389.5" x2="389.5" y2="374.5"/>
	<line class="st12" x1="608.5" y1="374.5" x2="624.5" y2="389.5"/>
	<line class="st12" x1="608.5" y1="624.5" x2="624.5" y2="608.5"/>
	<line class="st12" x1="374.5" y1="608.5" x2="389.5" y2="624.5"/>
</g>
</svg>
